<svg width="160" height="32" viewBox="0 0 160 32" xmlns="http://www.w3.org/2000/svg" role="img" aria-labelledby="insurfoxLogoTitle">
  <title id="insurfoxLogoTitle">Insurfox</title>
  <g fill="none" fill-rule="evenodd">
    <path d="M10.7 4.2c4.2 0 7.6 3.2 7.6 7.2 0 3.9-3.4 7.1-7.6 7.1-1.1 0-2.2-.2-3.1-.6l-3.7 4.6c-.5.6-1.4.7-2 .1-.6-.5-.7-1.4-.2-2l3.6-4.5c-1-1.2-1.6-2.7-1.6-4.2 0-4 3.4-7.1 7.6-7.1z" fill="#F66347"/>
    <path d="M14.4 18.4c1.4-1.3 2.2-3 2.2-5 0-4-3.4-7.2-7.6-7.2-.6 0-1.3.1-1.9.2 3.1.9 5.4 3.6 5.4 6.8 0 1.9-.8 3.7-2.1 5l2.1.2c.9.1 1.9.7 2.3 1.5.3.7.2 1.4-.4 1.9-.5.5-1.3.5-2 .1l-2.9-1.5-.6.8c-.5.7-1.4.8-2 .3-.6-.5-.7-1.3-.2-1.9l.6-.8-1.2-.6-2.4 3c-.4.5-1.1.6-1.7.2s-.7-1.2-.3-1.8L8.4 14c.4-.5 1-.7 1.6-.4l5.9 3c.5.3 1.3.2 1.8-.2.4-.4.4-.8.2-1.2-.3-.4-.8-.6-1.2-.6h-2.3z" fill="#FFD9C8"/>
    <g fill="#FFFFFF" font-family="'Source Sans 3', 'Segoe UI', sans-serif" font-size="18" font-weight="600" letter-spacing="0.02em">
      <text x="33" y="22">Insur</text>
      <text x="86" y="22" fill="#FFD9C8">fox</text>
    </g>
  </g>
</svg>
